<?xml version="1.0" standalone="no"?><!DOCTYPE svg PUBLIC "-//W3C//DTD SVG 1.1//EN" "http://www.w3.org/Graphics/SVG/1.1/DTD/svg11.dtd"><svg t="1520775208912" class="icon" style="" viewBox="0 0 1024 1024" version="1.1" xmlns="http://www.w3.org/2000/svg" p-id="3651" data-spm-anchor-id="a313x.7781069.0.i24" xmlns:xlink="http://www.w3.org/1999/xlink" width="200" height="200"><defs><style type="text/css"></style></defs><path d="M277.333333 942.933333a234.666667 32 0 1 0 469.333334 0 234.666667 32 0 1 0-469.333334 0Z" fill="#45413C" p-id="3652"></path><path d="M810.666667 503.466667c12.8-17.066667 19.2-38.4 19.2-61.866667 0-61.866667-40.533333-106.666667-136.533334-106.666667 19.2-17.066667 29.866667-40.533333 29.866667-68.266666 0-51.2-40.533333-91.733333-91.733333-91.733334h-110.933334c-21.333333-6.4-46.933333-55.466667-34.133333-108.8 0-4.266667 0-10.666667-4.266667-12.8-4.266667-4.266667-8.533333-4.266667-12.8-4.266666-168.533333 25.6-200.533333 234.666667-151.466666 285.866666-132.266667 0-149.333333 108.8-108.8 168.533334-196.266667 64-149.333333 354.133333 55.466666 354.133333h484.266667c211.2 0 258.133333-290.133333 61.866667-354.133333z" fill="#8a8a8a" p-id="3653" data-spm-anchor-id="a313x.7781069.0.i18" class="selected"></path><path d="M300.8 552.533333c-42.666667-57.6-23.466667-168.533333 108.8-168.533333-40.533333-42.666667-25.6-196.266667 78.933333-260.266667-4.266667-17.066667-4.266667-36.266667 0-55.466666 0-4.266667 0-10.666667-4.266666-12.8-4.266667-4.266667-8.533333-4.266667-12.8-4.266667-168.533333 25.6-200.533333 234.666667-151.466667 285.866667-132.266667 0-149.333333 108.8-108.8 168.533333-179.2 57.6-153.6 311.466667 14.933333 347.733333-83.2-87.466667-68.266667-253.866667 74.666667-300.8z" fill="#ffffff" p-id="3654" data-spm-anchor-id="a313x.7781069.0.i17" class=""></path><path d="M300.8 573.866667m-19.2 0a19.2 19.2 0 1 0 38.4 0 19.2 19.2 0 1 0-38.4 0Z" fill="#45413C" p-id="3655"></path><path d="M300.8 573.866667m-19.2 0a19.2 19.2 0 1 0 38.4 0 19.2 19.2 0 1 0-38.4 0Z" fill="#45413C" p-id="3656"></path><path d="M738.133333 573.866667m-19.2 0a19.2 19.2 0 1 0 38.4 0 19.2 19.2 0 1 0-38.4 0Z" fill="#45413C" p-id="3657"></path><path d="M388.266667 642.133333c-6.4 0-10.666667 2.133333-14.933334 6.4s-6.4 10.666667-4.266666 14.933334c10.666667 70.4 70.4 123.733333 142.933333 123.733333 72.533333 0 132.266667-53.333333 142.933333-123.733333 0-6.4 0-10.666667-4.266666-14.933334-4.266667-4.266667-8.533333-6.4-14.933334-6.4H388.266667z" fill="#ffffff" p-id="3658" data-spm-anchor-id="a313x.7781069.0.i20" class=""></path><path d="M627.2 731.733333C597.333333 714.666667 556.8 704 512 704s-85.333333 10.666667-115.2 27.733333c25.6 34.133333 68.266667 55.466667 115.2 55.466667s87.466667-21.333333 115.2-55.466667z" fill="#ffffff" p-id="3659" data-spm-anchor-id="a313x.7781069.0.i21" class=""></path><path d="M194.133333 669.866667a49.066667 29.866667 0 1 0 98.133334 0 49.066667 29.866667 0 1 0-98.133334 0Z" fill="#ffffff" p-id="3660" data-spm-anchor-id="a313x.7781069.0.i23" class=""></path><path d="M746.666667 669.866667a49.066667 29.866667 0 1 0 98.133333 0 49.066667 29.866667 0 1 0-98.133333 0Z" fill="#ffffff" p-id="3661" data-spm-anchor-id="a313x.7781069.0.i22" class=""></path></svg>