<?xml version="1.0" standalone="no"?><!DOCTYPE svg PUBLIC "-//W3C//DTD SVG 1.1//EN" "http://www.w3.org/Graphics/SVG/1.1/DTD/svg11.dtd"><svg t="1520693104268" class="icon" style="" viewBox="0 0 1135 1024" version="1.1" xmlns="http://www.w3.org/2000/svg" p-id="1193" xmlns:xlink="http://www.w3.org/1999/xlink" width="221.6796875" height="200"><defs><style type="text/css"></style></defs><path d="M330.475736 383.839795A112.454149 112.454149 0 0 0 223.319921 466.036629h-36.467331a143.35889 143.35889 0 0 1 282.225428 0h-31.51253A112.43433 112.43433 0 0 0 330.475736 383.839795z m483.258195-35.958638a145.439906 145.439906 0 0 1 141.046649 118.155472h-31.446466a110.901645 110.901645 0 0 0-214.245567 0h-36.46733a145.453119 145.453119 0 0 1 141.112714-118.135653zM574.251914 634.222372a146.404441 146.404441 0 0 1-142.03761-118.981272h36.731586V515.307164h215.632911v-0.046245h31.710723A146.457292 146.457292 0 0 1 574.251914 634.222372zM480.374963 541.732766a110.657208 110.657208 0 0 0 192.774766 0H480.374963z m654.033646-56.861289a56.762193 56.762193 0 0 1-61.175268 48.107808 85.585918 85.585918 0 0 1-32.701682-15.148476 87.501774 87.501774 0 0 0 33.890834 16.04034c1.519472 0.158554 3.038944 0.218011 4.558416 0.244437a448.039473 448.039473 0 0 1-1.387344 21.18012 105.411726 105.411726 0 0 1 32.239234 20.763917 91.941275 91.941275 0 0 1-5.879696 129.815769 103.059847 103.059847 0 0 1-74.916581 28.017744 512.035675 512.035675 0 0 1-924.830002-4.102574 104.381127 104.381127 0 0 1-72.934661-27.925255 90.857826 90.857826 0 0 1-5.879696-129.20798 104.526468 104.526468 0 0 1 31.908914-20.479842 564.569771 564.569771 0 0 1-1.255216-21.285822 53.102247 53.102247 0 0 0 6.143952-0.270863c11.891521-1.255216 29.398482-12.083106 46.046612-24.503139-0.066064 1.98192-0.198192 3.89117-0.198192 5.859877 0 7.181157 0.264256 14.31607 0.594576 21.417951a1032.065094 1032.065094 0 0 1 102.861655-24.57581s-15.458977 158.646101-49.81226 195.470177a78.834177 78.834177 0 0 1-7.993744 7.35953 459.561036 459.561036 0 0 0 826.526762 2.536858 84.343915 84.343915 0 0 1-6.143952-5.899516c-34.221154-36.995843-49.614068-196.375254-49.614068-196.375254a1021.970514 1021.970514 0 0 1 101.870696 24.522959c0.462448-8.106053 0.726704-16.251745 0.726704-24.443682 0-1.281642-0.066064-2.536858-0.132128-3.811893a567.4898 567.4898 0 0 1-46.376932-39.585552s18.960369-11.01287 41.752451-21.920036a459.455333 459.455333 0 0 0-909.172832-2.834146c22.92421 10.874135 42.016707 21.860579 42.016707 21.860579s-63.553572 60.983683-93.018119 64.082084a56.887714 56.887714 0 0 1-61.439524-47.88319 50.94856 50.94856 0 0 1 45.253843-59.067827 54.43674 54.43674 0 0 1 17.176641 1.902644 511.916759 511.916759 0 0 1 1009.325864 2.64256 53.657185 53.657185 0 0 1 16.912385-1.856399 51.100508 51.100508 0 0 1 45.055651 59.351902z m-952.444755 62.166229S77.054214 573.813447 53.535429 599.010258s-28.341458 58.169356-2.576496 81.800451a63.474296 63.474296 0 0 0 89.186406-2.840753c23.518786-25.196811 41.818515-130.95207 41.818515-130.95207z m813.512153 134.830027a63.289316 63.289316 0 0 0 92.885991-85.96909c-23.386658-25.322333-134.506313-52.223596-134.506314-52.223595s18.233665 112.870352 41.620323 138.192685zM48.514564 439.723336a34.90822 34.90822 0 0 0-30.984018 40.417958 38.918305 38.918305 0 0 0 42.016707 32.76114c20.149521-2.114048 70.292101-44.540352 70.292101-44.540352s-61.175268-30.752794-81.32479-28.638746z m1038.261898 2.761476c-20.083457-2.120655-80.99447 28.77748-80.99447 28.77748s49.944388 42.624496 70.027845 44.751757a38.805996 38.805996 0 0 0 41.818515-32.919694 35.013922 35.013922 0 0 0-30.85189-40.609543z" fill="#ffffff" p-id="1194"></path></svg>