<?xml version="1.0" standalone="no"?><!DOCTYPE svg PUBLIC "-//W3C//DTD SVG 1.1//EN" "http://www.w3.org/Graphics/SVG/1.1/DTD/svg11.dtd"><svg t="1520263958370" class="icon" style="" viewBox="0 0 1024 1024" version="1.1" xmlns="http://www.w3.org/2000/svg" p-id="740" xmlns:xlink="http://www.w3.org/1999/xlink" width="200" height="200"><defs><style type="text/css"></style></defs><path d="M588.736 135.04c20.864 58.56 35.456 128.192 42.816 204.352 60.672 2.24 118.016 9.152 171.904 20.736 2.368-15.488 5.888-29.056 9.728-40.512 11.328-34.048 29.824-63.68 53.568-85.76 16.128-14.976 33.92-25.856 52.48-32.192a513.795 513.795 0 0 0-45.184-51.648c-47.04-47.04-101.76-83.904-162.752-109.696C648.64 13.76 582.144 0.192 513.536 0c30.016 33.792 55.232 78.976 75.2 135.04zM953.6 258.432c-32.384 2.624-65.472 35.968-80.448 81.024-3.328 9.984-6.336 22.144-8.064 36.224 55.616 16.448 107.008 38.4 154.112 65.728a505.252 505.252 0 0 0-35.456-128.704 529.91 529.91 0 0 0-27.072-54.72c-0.96 0.192-1.984 0.32-3.072 0.448z m-686.848-45.248c49.024 27.264 83.968 70.016 101.12 123.712a247.214 247.214 0 0 1 4.928 17.92c53.952-7.808 106.24-12.864 156.608-15.104 12.992-0.512 25.856-0.896 38.592-1.024-7.04-68.224-20.224-130.304-38.784-182.4-25.344-71.104-60.288-121.92-100.992-146.88-1.088-0.64-2.048-1.344-3.008-2.112-38.528 6.592-76.16 17.6-112.512 32.96-60.992 25.792-115.712 62.72-162.752 109.696a510.136 510.136 0 0 0-27.136 29.376c55.168 0.064 103.488 11.392 143.936 33.856z m756.544 305.408c-48.192-32.896-100.544-57.856-155.776-76.032 2.368 13.12 6.016 27.008 11.136 41.728 20.992 59.968 62.528 119.232 123.456 176.32C1016 614.912 1023.36 567.488 1024 519.04a4.305 4.305 0 0 1-0.704-0.448zM573.312 416.064c-0.192-4.8-0.384-9.6-0.576-14.336-64.064 0.768-128.896 6.592-193.024 16-0.128 13.44-1.152 27.136-3.136 41.152-6.08 43.2-20.864 86.848-43.84 129.856-48.192 90.048-128.064 169.152-231.36 229.184 14.784 19.776 30.976 38.528 48.64 56.128 47.04 47.04 101.76 83.904 162.752 109.696 43.84 18.56 89.6 30.72 136.64 36.48 84.864-168.064 131.2-393.92 123.904-604.16z m-263.104-51.008c-0.768-3.008-1.6-6.016-2.56-8.96-26.496-83.008-108.544-123.648-225.216-111.424-2.432 0.256-4.8 0.256-7.168-0.064a506.091 506.091 0 0 0-35.008 68.096C22.528 354.688 10.56 398.336 4.544 443.2c106.496-34.496 208.64-60.608 305.664-78.144z m665.536 356.928c-77.632-68.608-130.368-141.632-156.672-216.832-10.24-29.376-15.616-56.448-17.6-80.96-53.504-12.224-108.992-19.072-165.44-21.504 0.128 3.712 0.32 7.424 0.448 11.136 3.648 104.96-5.504 216.704-26.56 323.328-20.672 104.704-51.648 201.024-92.096 286.848 67.072-0.768 132.16-14.272 193.536-40.192 60.992-25.792 115.712-62.72 162.752-109.696 43.712-43.712 78.72-94.208 104.128-150.08-0.896-0.64-1.728-1.28-2.496-2.048zM276.992 558.912c23.488-43.904 36.736-88.96 39.04-130.688-108.224 19.904-212.864 48.896-306.56 79.872a32.668 32.668 0 0 1-9.472 1.6V512c0 69.12 13.568 136.192 40.256 199.296 7.808 18.432 16.64 36.352 26.496 53.632 119.168-68.48 180.096-149.632 210.24-206.016z m0 0" fill="#ffffff" p-id="741"></path></svg>