<?xml version="1.0" standalone="no"?><!DOCTYPE svg PUBLIC "-//W3C//DTD SVG 1.1//EN" "http://www.w3.org/Graphics/SVG/1.1/DTD/svg11.dtd"><svg t="1520263845962" class="icon" style="" viewBox="0 0 1024 1024" version="1.1" xmlns="http://www.w3.org/2000/svg" p-id="886" xmlns:xlink="http://www.w3.org/1999/xlink" width="200" height="200"><defs><style type="text/css"></style></defs><path d="M686.933333 209.429333l-174.570666-107.648-174.592 107.648v210.197334l174.592 107.648 179.733333-107.648V209.429333H686.933333z m-46.186666 179.413334l-128.384 76.906666L384 388.864v-148.672l128.362667-76.885333 128.384 76.885333v148.672zM132.373333 593.92v210.176l174.592 107.648 174.592-107.648V593.92l-174.592-107.669333-174.592 107.669333z m302.976 30.741333v148.672l-128.384 76.885334-128.384-76.885334v-148.672l128.384-76.885333 128.384 76.885333z m277.269334-138.410666l-174.570667 107.669333v210.176l179.712 107.648 174.592-107.648V593.92l-179.733333-107.669333z m128.384 281.962666l-123.242667 76.885334-128.362667-71.765334v-143.530666l128.362667-76.906667 123.242667 71.765333v143.552z" fill="#ffffff" p-id="887"></path></svg>