<?xml version="1.0" standalone="no"?><!DOCTYPE svg PUBLIC "-//W3C//DTD SVG 1.1//EN" "http://www.w3.org/Graphics/SVG/1.1/DTD/svg11.dtd"><svg t="1520263801961" class="icon" style="" viewBox="0 0 1024 1024" version="1.1" xmlns="http://www.w3.org/2000/svg" p-id="737" xmlns:xlink="http://www.w3.org/1999/xlink" width="200" height="200"><defs><style type="text/css"></style></defs><path d="M644.266667 343.466667c55.466667 8.533333 106.666667 40.533333 140.8 78.933333 40.533333 46.933333 70.4 108.8 78.933333 172.8 6.4 38.4 2.133333 74.666667-2.133333 110.933333-12.8 23.466667-51.2 78.933333-123.733334 136.533334 2.133333-4.266667 4.266667-6.4 4.266667-10.666667 25.6-51.2 49.066667-98.133333 55.466667-153.6 6.4-57.6-4.266667-119.466667-27.733334-168.533333-12.8-27.733333-32-51.2-55.466666-70.4-8.533333-34.133333-32-66.133333-70.4-96z m44.8 288c19.2-21.333333 27.733333-59.733333 34.133333-108.8 14.933333 25.6 23.466667 51.2 25.6 78.933333 8.533333 78.933333-17.066667 155.733333-72.533333 219.733333-34.133333 38.4-76.8 70.4-125.866667 93.866667-83.2 10.666667-147.2-6.4-204.8-32 78.933333 6.4 164.266667-12.8 228.266667-55.466667 61.866667-42.666667 100.266667-100.266667 110.933333-170.666666 4.266667-8.533333 4.266667-17.066667 4.266667-25.6zM106.666667 556.8c49.066667 91.733333 130.133333 168.533333 215.466666 194.133333 64 19.2 123.733333 10.666667 181.333334-23.466666h6.4c19.2 0 38.4-2.133333 57.6-8.533334 17.066667-4.266667 34.133333-12.8 51.2-21.333333-6.4 10.666667-12.8 19.2-19.2 29.866667-36.266667 44.8-83.2 74.666667-134.4 87.466666-25.6 6.4-51.2 8.533333-76.8 8.533334-57.6-2.133333-117.333333-21.333333-174.933334-55.466667-12.8-6.4-23.466667-14.933333-34.133333-23.466667C145.066667 697.6 106.666667 629.333333 106.666667 556.8z m219.733333 68.266667c19.2 36.266667 49.066667 61.866667 89.6 83.2h-29.866667c-83.2-8.533333-151.466667-51.2-192-121.6-29.866667-51.2-46.933333-115.2-49.066666-187.733334 0-25.6 0-49.066667 4.266666-74.666666 27.733333-76.8 72.533333-121.6 130.133334-145.066667-27.733333 42.666667-46.933333 89.6-57.6 138.666667-14.933333 64-14.933333 123.733333-2.133334 177.066666 17.066667 57.6 51.2 102.4 106.666667 130.133334z m2.133333-234.666667c-32 36.266667-38.4 81.066667-38.4 128-32-64-32-155.733333-2.133333-224 25.6-53.333333 66.133333-102.4 121.6-138.666667C448 132.266667 486.4 117.333333 526.933333 106.666667c83.2 10.666667 157.866667 38.4 183.466667 51.2h-17.066667c-59.733333 0-117.333333-2.133333-172.8 17.066666-55.466667 19.2-104.533333 49.066667-138.666666 91.733334-25.6 29.866667-46.933333 76.8-53.333334 123.733333zM864 320c40.533333 55.466667 49.066667 157.866667 49.066667 189.866667v6.4c-2.133333-4.266667-4.266667-10.666667-6.4-14.933334-8.533333-19.2-14.933333-38.4-25.6-55.466666-23.466667-36.266667-46.933333-64-72.533334-87.466667-57.6-49.066667-128-76.8-189.866666-74.666667-21.333333 0-51.2 4.266667-78.933334 12.8-10.666667-2.133333-21.333333-2.133333-32-2.133333-8.533333 0-17.066667 0-25.6 2.133333-10.666667 2.133333-21.333333 2.133333-32 6.4-14.933333 4.266667-27.733333 8.533333-38.4 14.933334 27.733333-38.4 72.533333-68.266667 132.266667-85.333334 68.266667-19.2 153.6-10.666667 228.266667 25.6 32 12.8 61.866667 34.133333 91.733333 61.866667z" fill="#ffffff" p-id="738"></path></svg>