<?xml version="1.0" standalone="no"?><!DOCTYPE svg PUBLIC "-//W3C//DTD SVG 1.1//EN" "http://www.w3.org/Graphics/SVG/1.1/DTD/svg11.dtd"><svg t="1520265609941" class="icon" style="" viewBox="0 0 1024 1024" version="1.1" xmlns="http://www.w3.org/2000/svg" p-id="613" xmlns:xlink="http://www.w3.org/1999/xlink" width="400" height="400"><defs><style type="text/css"></style></defs><path d="M512 902.4c-23.466667 0-42.666667-19.2-42.666667-42.666667V166.4c0-23.466667 19.2-42.666667 42.666667-42.666667s42.666667 19.2 42.666667 42.666667v693.333333c0 23.466667-19.2 42.666667-42.666667 42.666667zM330.666667 776.533333c-23.466667 0-42.666667-19.2-42.666667-42.666666V302.933333c0-23.466667 19.2-42.666667 42.666667-42.666666s42.666667 19.2 42.666666 42.666666v430.933334c0 23.466667-19.2 42.666667-42.666666 42.666666zM149.333333 663.466667c-23.466667 0-42.666667-19.2-42.666666-42.666667V426.666667c0-23.466667 19.2-42.666667 42.666666-42.666667s42.666667 19.2 42.666667 42.666667v194.133333c2.133333 23.466667-17.066667 42.666667-42.666667 42.666667zM874.666667 663.466667c-23.466667 0-42.666667-19.2-42.666667-42.666667V426.666667c0-23.466667 19.2-42.666667 42.666667-42.666667s42.666667 19.2 42.666666 42.666667v194.133333c0 23.466667-19.2 42.666667-42.666666 42.666667zM695.466667 774.4c-23.466667 0-42.666667-19.2-42.666667-42.666667V300.8c0-23.466667 19.2-42.666667 42.666667-42.666667s42.666667 19.2 42.666666 42.666667v430.933333c0 23.466667-19.2 42.666667-42.666666 42.666667z" fill="#ffffff" p-id="614"></path></svg>